<?xml version="1.0" encoding="UTF-8" standalone="no"?>
<!-- Created with Inkscape (http://www.inkscape.org/) -->

<svg
   width="500"
   height="500"
   viewBox="0 0 132.29166 132.29167"
   version="1.1"
   id="svg5"
   inkscape:version="1.2 (dc2aedaf03, 2022-05-15)"
   sodipodi:docname="Logo_BASE.svg"
   inkscape:export-filename="Logo.png"
   inkscape:export-xdpi="300"
   inkscape:export-ydpi="300"
   xmlns:inkscape="http://www.inkscape.org/namespaces/inkscape"
   xmlns:sodipodi="http://sodipodi.sourceforge.net/DTD/sodipodi-0.dtd"
   xmlns="http://www.w3.org/2000/svg"
   xmlns:svg="http://www.w3.org/2000/svg">
  <sodipodi:namedview
     id="namedview7"
     pagecolor="#ffffff"
     bordercolor="#000000"
     borderopacity="0.25"
     inkscape:showpageshadow="2"
     inkscape:pageopacity="0.0"
     inkscape:pagecheckerboard="0"
     inkscape:deskcolor="#d1d1d1"
     inkscape:document-units="px"
     showgrid="false"
     showguides="true"
     inkscape:zoom="1.3266287"
     inkscape:cx="-73.117668"
     inkscape:cy="345.61289"
     inkscape:window-width="2560"
     inkscape:window-height="1361"
     inkscape:window-x="-9"
     inkscape:window-y="-9"
     inkscape:window-maximized="1"
     inkscape:current-layer="layer1">
    <inkscape:grid
       type="xygrid"
       id="grid132" />
    <sodipodi:guide
       position="6.6145832,125.67708"
       orientation="1,0"
       id="guide134"
       inkscape:locked="false" />
    <sodipodi:guide
       position="125.67708,125.67708"
       orientation="0,-1"
       id="guide186"
       inkscape:locked="false" />
    <sodipodi:guide
       position="125.67708,125.67708"
       orientation="1,0"
       id="guide188"
       inkscape:locked="false" />
    <sodipodi:guide
       position="6.6145832,6.6145832"
       orientation="0,-1"
       id="guide190"
       inkscape:locked="false" />
    <sodipodi:guide
       position="10.583333,66.145835"
       orientation="0,-1"
       id="guide932"
       inkscape:locked="false" />
    <sodipodi:guide
       position="66.14583,128.32292"
       orientation="1,0"
       id="guide934"
       inkscape:locked="false" />
    <sodipodi:guide
       position="-214.31249,111.125"
       orientation="0,-1"
       id="guide2261"
       inkscape:locked="false" />
  </sodipodi:namedview>
  <defs
     id="defs2">
    <pattern
       id="EMFhbasepattern"
       patternUnits="userSpaceOnUse"
       width="6"
       height="6"
       x="0"
       y="0" />
    <pattern
       id="EMFhbasepattern-8"
       patternUnits="userSpaceOnUse"
       width="6"
       height="6"
       x="0"
       y="0" />
    <pattern
       id="EMFhbasepattern-3"
       patternUnits="userSpaceOnUse"
       width="6"
       height="6"
       x="0"
       y="0" />
  </defs>
  <g
     inkscape:label="Layer 1"
     inkscape:groupmode="layer"
     id="layer1">
    <circle
       style="fill:none;fill-rule:evenodd;stroke:#e6e6e6;stroke-width:1;stroke-opacity:1"
       id="path244"
       cx="66.145828"
       cy="66.145836"
       r="56.885418" />
    <text
       xml:space="preserve"
       style="font-style:normal;font-variant:normal;font-weight:900;font-size:28.2277px;line-height:125%;font-family:'Kanit Black';text-align:start;letter-spacing:0px;word-spacing:0px;text-anchor:start;fill:#000000;fill-opacity:1;stroke:none;stroke-width:0.264583"
       x="14.128665"
       y="84.666664"
       id="text1230"><tspan
         sodipodi:role="line"
         x="0"
         y="0"
         id="tspan1228"
         style="stroke-width:0.264583"><tspan
           style="font-style:normal;font-variant:normal;font-weight:900;font-size:28.2279px;font-family:'Kanit Black';fill:#000000;stroke-width:0.264583"
           id="tspan1226" /></tspan></text>
    <text
       xml:space="preserve"
       style="font-style:normal;font-variant:normal;font-weight:400;font-size:3.9026px;line-height:125%;font-family:Calibri;text-align:start;letter-spacing:0px;word-spacing:0px;text-anchor:start;fill:#000000;fill-opacity:1;stroke:none;stroke-width:0.264583"
       x="23.060534"
       y="84.666664"
       id="text1236"><tspan
         sodipodi:role="line"
         x="23.060534"
         y="84.666664"
         id="tspan1234"
         style="stroke-width:0.264583"><tspan
           dx="0"
           dy="0"
           style="font-style:normal;font-variant:normal;font-weight:400;font-size:3.9026px;font-family:Calibri;fill:#000000;stroke-width:0.264583"
           id="tspan1232"> </tspan></tspan></text>
    <g
       aria-label="POLISH LEATHER"
       id="text1934"
       style="font-weight:900;font-size:14.1111px;font-family:'Kanit Black';-inkscape-font-specification:'Kanit Black,  Heavy';text-orientation:upright;opacity:1;fill:#e6e6e6;fill-rule:evenodd"
       transform="matrix(1.0302488,0,0,1.033732,-0.83448475,-2.9508165)">
      <path
         d="m 15.244595,53.056671 1.712671,-4.812552 q 0.378491,-1.063547 1.08598,-1.620583 0.698926,-0.575061 1.584444,-0.664333 0.890249,-0.102567 1.820853,0.228613 0.930604,0.331179 1.541716,1.012979 0.615843,0.668505 0.784882,1.58241 0.160475,0.895879 -0.189629,1.87966 l -0.548812,1.542144 1.914385,0.681283 -1.144935,3.217231 z m 5.558612,-2.530213 q 0.137203,-0.385536 -0.0045,-0.660649 -0.141742,-0.275114 -0.513984,-0.407586 -0.824249,-0.29333 -1.084461,0.437859 l -0.298062,0.837543 1.62191,0.577199 z"
         style="fill:#e6e6e6"
         id="path2096" />
      <path
         d="m 29.305911,44.15614 q -1.28344,2.026682 -2.877699,2.486915 -1.586709,0.448312 -3.684921,-0.880427 -2.098212,-1.328738 -2.371281,-2.954795 -0.265521,-1.637979 1.01792,-3.664661 1.28344,-2.026681 2.870149,-2.474993 1.594259,-0.460233 3.69247,0.868505 2.098212,1.328738 2.363733,2.966717 0.273069,1.626057 -1.010371,3.652739 z m -2.44394,-1.547678 q 0.400131,-0.631848 0.232417,-1.105515 -0.172086,-0.493138 -1.006602,-1.021613 -0.834516,-0.528476 -1.341964,-0.465668 -0.511821,0.04334 -0.911952,0.675185 -0.400132,0.631848 -0.228046,1.124986 0.167715,0.473666 1.002231,1.002142 0.834516,0.528475 1.346336,0.485138 0.507449,-0.06281 0.90758,-0.694655 z"
         style="fill:#e6e6e6"
         id="path2098" />
      <path
         d="m 25.884337,33.139703 2.388656,-2.440445 4.638863,4.540419 2.595935,-2.65222 1.855546,1.816168 -4.984591,5.092665 z"
         style="fill:#e6e6e6"
         id="path2100" />
      <path
         d="m 32.249495,27.024204 2.707693,-2.080828 5.537411,7.205596 -2.707693,2.080828 z"
         style="fill:#e6e6e6"
         id="path2102" />
      <path
         d="m 44.07075,30.080278 q -0.84942,0.475933 -1.707748,0.762755 -0.858327,0.286822 -1.520214,0.318001 l -1.248461,-2.228188 q 0.749545,-0.04794 1.567013,-0.263346 0.829779,-0.222301 1.396059,-0.539589 0.369312,-0.206927 0.530307,-0.410359 0.154096,-0.215742 0.05753,-0.388088 -0.08277,-0.147725 -0.303399,-0.137332 -0.227527,-0.0019 -0.784992,0.100155 -0.645122,0.118836 -0.73278,0.135601 -0.953409,0.145994 -1.563611,0.06734 -0.610202,-0.07866 -1.055481,-0.41147 -0.432969,-0.339712 -0.819233,-1.029096 -0.703553,-1.255663 -0.179804,-2.341705 0.529162,-1.105249 2.277243,-2.084704 0.57859,-0.324186 1.410812,-0.628731 0.825325,-0.316856 1.412823,-0.451931 l 1.255358,2.240498 q -1.438496,0.175163 -2.374088,0.699378 -0.947903,0.531113 -0.775464,0.838874 0.06898,0.123104 0.289605,0.112711 0.213731,-0.0227 0.81354,-0.164676 l 0.368354,-0.09316 q 1.092752,-0.272594 1.798994,-0.166874 0.711655,0.08651 1.159904,0.482364 0.453662,0.376643 0.860618,1.102958 0.648372,1.15718 0.116767,2.344674 -0.526192,1.168286 -2.249652,2.133946 z"
         style="fill:#e6e6e6"
         id="path2104" />
      <path
         d="m 45.50045,18.923052 3.263494,-1.005513 0.872552,2.831958 2.171168,-0.668957 -0.872553,-2.831958 3.263494,-1.005512 2.675828,8.684669 -3.263494,1.005513 -0.872553,-2.831958 -2.171167,0.668957 0.872552,2.831958 -3.263493,1.005513 z"
         style="fill:#e6e6e6"
         id="path2106" />
      <path
         d="m 62.187795,15.285002 3.414763,0.02911 -0.05534,6.49087 3.711085,0.03164 -0.02214,2.596348 -7.125846,-0.06075 z"
         style="fill:#e6e6e6"
         id="path2108" />
      <path
         d="m 71.155292,15.577385 7.139827,1.354736 -0.457717,2.412291 -3.784801,-0.718142 -0.152573,0.804097 3.257979,0.618181 -0.4735,2.495474 -3.257979,-0.618181 -0.152572,0.804097 3.784801,0.718142 -0.457717,2.412291 -7.139826,-1.354737 z"
         style="fill:#e6e6e6"
         id="path2110" />
      <path
         d="m 83.58419,18.798652 3.279986,1.336658 -0.188731,9.736261 -3.293053,-1.341983 0.03793,-1.813086 -1.973218,-0.804125 -1.240153,1.323155 -3.293053,-1.341983 z m 0.361981,5.617901 0.0147,-1.868265 -1.295331,1.346382 z"
         style="fill:#e6e6e6"
         id="path2112" />
      <path
         d="m 90.788136,25.093796 -1.922928,-1.28762 1.366133,-2.04018 6.683347,4.475264 -1.366134,2.04018 -1.922927,-1.28762 -3.69013,5.51083 -2.837491,-1.900025 z"
         style="fill:#e6e6e6"
         id="path2114" />
      <path
         d="m 98.782113,27.732638 2.371097,2.457506 -2.132544,2.057565 1.577464,1.634953 2.13255,-2.057566 2.3711,2.457507 -6.539811,6.309867 -2.3711,-2.457506 2.132547,-2.057566 -1.577467,-1.634952 -2.132546,2.057565 -2.3711,-2.457506 z"
         style="fill:#e6e6e6"
         id="path2116" />
      <path
         d="m 106.80719,36.666146 3.83943,6.170185 -2.08468,1.297207 -2.03528,-3.270797 -0.69489,0.432402 1.75197,2.815521 -2.15656,1.341939 -1.75198,-2.815522 -0.69489,0.432403 2.03527,3.270797 -2.08468,1.297207 -3.839439,-6.170185 z"
         style="fill:#e6e6e6"
         id="path2118" />
      <path
         d="m 111.73654,44.989636 1.7789,4.788467 q 0.58477,1.57411 0.003,2.723477 -0.56345,1.157682 -1.99205,1.688402 -0.82012,0.304673 -1.63877,0.127087 -0.80049,-0.169272 -1.50086,-0.676812 -0.0786,0.315212 -0.30384,0.519316 l -1.94139,1.865278 -1.23835,-3.333409 1.58199,-1.536065 q 0.13416,-0.125108 0.15759,-0.224131 0.0367,-0.103938 -0.0174,-0.249444 l -0.0491,-0.132278 -2.16936,0.805909 -1.18921,-3.20113 z m -2.37015,5.411568 q 0.28993,0.780441 0.95132,0.534737 0.35715,-0.13268 0.44708,-0.376838 0.10808,-0.235845 -0.0295,-0.606224 l -0.30959,-0.833352 -1.34924,0.501236 z"
         style="fill:#e6e6e6"
         id="path2120" />
    </g>
    <g
       aria-label="UNIFORM GROUP"
       id="text2054"
       style="font-weight:900;font-size:14.1111px;font-family:'Kanit Black';-inkscape-font-specification:'Kanit Black,  Heavy';letter-spacing:2.11667px;text-orientation:upright;opacity:1;fill-rule:evenodd;fill:#e6e6e6"
       transform="matrix(1.0190832,0,0,1,-1.0597501,0.52916666)">
      <path
         d="m 17.023328,83.190175 q -0.424119,-1.226989 -0.360542,-2.338878 0.07691,-1.116498 0.670167,-1.948634 0.606591,-0.836746 1.726885,-1.223985 l 5.201367,-1.797893 1.115615,3.227515 -4.787924,1.654983 q -1.200315,0.414899 -0.831517,1.481846 0.368799,1.066947 1.569114,0.652048 l 4.787924,-1.654983 1.115616,3.227514 -5.201366,1.797893 q -1.120295,0.387239 -2.114124,0.10369 -0.980493,-0.288158 -1.730463,-1.118837 -0.736634,-0.83529 -1.160752,-2.062279 z"
         id="path2071"
         style="fill:#e6e6e6" />
      <path
         d="m 27.658423,85.33251 1.533303,2.419638 -1.644109,4.048902 3.003688,-1.903411 1.827879,2.884495 -7.676093,4.864271 -1.540856,-2.431557 1.651662,-4.036983 -3.003688,1.903411 -1.827878,-2.884495 z"
         id="path2073"
         style="fill:#e6e6e6" />
      <path
         d="m 33.48047,93.820053 2.311797,2.513373 -6.688479,6.152054 -2.311797,-2.513371 z"
         id="path2075"
         style="fill:#e6e6e6" />
      <path
         d="m 37.006777,97.597686 5.662685,4.554824 -1.538912,1.91322 -3.001773,-2.4145 -0.51297,0.63774 2.583943,2.07841 -1.591978,1.9792 -2.583943,-2.07842 -2.051883,2.55096 -2.660912,-2.14033 z"
         id="path2077"
         style="fill:#e6e6e6" />
      <path
         d="m 42.479862,112.44731 q -2.135473,-1.09289 -2.739448,-2.63843 -0.591414,-1.53911 0.540052,-3.74995 1.131466,-2.21084 2.725771,-2.63134 1.606867,-0.41408 3.742339,0.67882 2.135472,1.09289 2.726886,2.632 0.603976,1.54554 -0.52749,3.75638 -1.131467,2.21084 -2.738333,2.62491 -1.594305,0.4205 -3.729777,-0.67239 z m 1.317901,-2.57513 q 0.665765,0.34073 1.122126,0.13044 0.475352,-0.21643 0.925367,-1.09574 0.450015,-0.87931 0.341104,-1.3789 -0.08992,-0.50572 -0.755685,-0.84644 -0.665765,-0.34073 -1.141117,-0.12431 -0.456361,0.2103 -0.906376,1.08961 -0.450015,0.87931 -0.360095,1.38503 0.108911,0.49959 0.774676,0.84031 z"
         id="path2079"
         style="fill:#e6e6e6" />
      <path
         d="m 51.786419,106.65206 4.955249,1.24072 q 1.628935,0.40786 2.247988,1.53749 0.636168,1.11937 0.266007,2.59774 -0.2125,0.84869 -0.821904,1.42343 -0.592288,0.56449 -1.406936,0.85511 0.215526,0.24307 0.256486,0.54426 l 0.440531,2.65597 -3.449511,-0.86371 -0.372257,-2.17338 q -0.02731,-0.1814 -0.09573,-0.25672 -0.06499,-0.089 -0.215568,-0.12671 l -0.136885,-0.0343 -0.562097,2.24492 -3.312625,-0.82944 z m 3.12287,5.01501 q 0.807623,0.20222 0.978994,-0.48221 0.09254,-0.36959 -0.05797,-0.58183 -0.133394,-0.22251 -0.516673,-0.31848 l -0.862378,-0.21593 -0.349597,1.39623 z"
         id="path2081"
         style="fill:#e6e6e6" />
      <path
         d="m 60.75841,108.89641 3.245492,0.02 1.825355,3.76489 1.857572,-3.74216 3.245491,0.02 -0.05608,9.08738 -3.414821,-0.0211 0.01968,-3.18905 -0.814419,1.63189 -1.735632,-0.0107 -0.794216,-1.64182 -0.01968,3.18905 -3.414822,-0.0211 z"
         id="path2083"
         style="fill:#e6e6e6" />
      <path
         d="m 84.956791,114.63598 q -2.422941,0.89319 -4.103982,0.24958 -1.681041,-0.64361 -2.481499,-2.81498 -0.795577,-2.15814 0.118444,-3.7584 0.92238,-1.61837 3.451241,-2.55061 0.834127,-0.30749 1.517059,-0.45397 0.696171,-0.15136 1.365189,-0.1724 l 1.005453,2.72746 q -1.210515,-0.02 -2.680168,0.5218 -1.006248,0.37094 -1.429148,0.97802 -0.41454,0.58896 -0.07776,1.50253 0.341659,0.92681 0.893646,1.15946 0.551988,0.23266 1.399355,-0.0797 0.423684,-0.15619 0.760241,-0.38553 l -0.190353,-0.51637 -1.416691,0.52225 -0.712603,-1.93305 4.064714,-1.49842 1.62532,4.40895 q -0.472382,0.59525 -1.245134,1.15082 -0.764393,0.53746 -1.863322,0.94257 z"
         id="path2085"
         style="fill:#e6e6e6" />
      <path
         d="m 85.931875,104.29246 4.293853,-2.76708 q 1.411515,-0.90962 2.659065,-0.58882 1.251768,0.3013 2.077305,1.58234 0.473919,0.73541 0.476545,1.57308 0.0068,0.81818 -0.3382,1.6113 0.324738,0.009 0.572507,0.18505 l 2.239147,1.49482 -2.989091,1.92625 -1.840345,-1.21462 q -0.151033,-0.10412 -0.252778,-0.1057 -0.109388,-0.0135 -0.239864,0.0706 l -0.118615,0.0764 1.253593,1.94528 -2.870476,1.84982 z m 5.794666,1.15089 q 0.699827,-0.45099 0.317634,-1.04406 -0.206384,-0.32026 -0.464171,-0.35559 -0.253569,-0.0548 -0.58569,0.1592 l -0.747273,0.48156 0.779674,1.20987 z"
         id="path2087"
         style="fill:#e6e6e6" />
      <path
         d="m 103.39006,102.43863 q -1.67241,1.7198 -3.32721,1.84271 -1.644965,0.11279 -3.425462,-1.61865 -1.780497,-1.73144 -1.713701,-3.378908 0.07663,-1.657589 1.749044,-3.377387 1.672409,-1.719798 3.317373,-1.83259 1.654806,-0.122907 3.435296,1.608529 1.7805,1.731435 1.70387,3.389025 -0.0668,1.647471 -1.73921,3.367271 z m -2.07387,-2.01673 q 0.52139,-0.536172 0.45456,-1.03419 -0.0671,-0.517972 -0.77526,-1.206611 -0.70815,-0.688639 -1.21768,-0.731416 -0.509807,-0.06273 -1.031205,0.473441 -0.521398,0.536172 -0.454288,1.054144 0.06683,0.498018 0.774983,1.186662 0.708153,0.68863 1.21796,0.75137 0.50953,0.0428 1.03093,-0.4934 z"
         id="path2089"
         style="fill:#e6e6e6" />
      <path
         d="m 110.79768,92.783919 q -0.66498,1.114983 -1.5562,1.782858 -0.90335,0.660648 -1.92196,0.74321 -1.03074,0.07533 -2.04877,-0.531815 l -4.72656,-2.818914 1.74917,-2.93289 4.35086,2.594846 q 1.09075,0.650519 1.66898,-0.319032 0.57824,-0.96955 -0.5125,-1.620069 l -4.35086,-2.594846 1.74917,-2.93289 4.72656,2.818913 q 1.01803,0.607151 1.44162,1.549844 0.41147,0.935465 0.25952,2.044248 -0.16406,1.101554 -0.82903,2.216537 z"
         id="path2091"
         style="fill:#e6e6e6" />
      <path
         d="m 105.57799,83.177023 1.58475,-4.856178 q 0.35022,-1.073188 1.04272,-1.648747 0.68347,-0.593351 1.56632,-0.706019 0.88722,-0.126084 1.82626,0.180359 0.93904,0.306443 1.56798,0.971836 0.63331,0.651978 0.82647,1.561091 0.18412,0.89132 -0.13984,1.884019 l -0.50782,1.556124 1.93174,0.630397 -1.05941,3.246395 z m 5.48972,-2.676388 q 0.12696,-0.389031 -0.022,-0.660298 -0.14897,-0.271267 -0.52459,-0.393844 -0.83172,-0.271421 -1.0725,0.466396 l -0.2758,0.845136 1.63662,0.534086 z"
         id="path2093"
         style="fill:#e6e6e6" />
    </g>
    <circle
       style="fill:none;fill-rule:evenodd"
       id="path244-6-9"
       cx="-66.128288"
       cy="-66.174606"
       r="42.333328"
       transform="rotate(179.9848)" />
    <path
       id="path244-6-9-1"
       style="fill:none;fill-rule:evenodd;stroke:#e6e6e6;stroke-width:0.5;stroke-opacity:1"
       d="m 49.313023,27.789974 c -0.07561,6.14e-4 -0.150929,0.0038 -0.226349,0.0062 a 42.333328,42.333328 0 0 0 -7.988654,4.735628 c -0.767927,1.367869 -1.165594,2.962914 -1.030434,4.694804 -0.942402,-0.646791 -1.948922,-1.063152 -2.97398,-1.278991 A 42.333328,42.333328 0 0 0 27.32676,50.399962 c 0.104604,0.203013 0.213218,0.406386 0.331252,0.610815 4.565808,7.908234 21.265286,9.442691 25.172624,9.698117 a 1.2276665,1.2276665 0 0 0 1.191657,-0.688331 l -0.0021,-0.0026 c 1.734259,-3.508491 8.756149,-18.736657 4.189441,-26.646417 -2.301318,-3.986006 -5.677348,-5.607695 -8.896611,-5.581572 z" />
    <g
       id="g2326"
       transform="translate(325.72811,-18.870154)"
       style="stroke:#e6e6e6">
      <text
         xml:space="preserve"
         style="font-style:normal;font-variant:normal;font-weight:400;font-size:3.9026px;line-height:125%;font-family:Calibri;text-align:start;letter-spacing:0px;word-spacing:0px;text-anchor:start;fill:none;fill-opacity:1;stroke:#e6e6e6;stroke-width:0.5"
         x="-231.13498"
         y="46.291424"
         id="text1288-8"><tspan
           sodipodi:role="line"
           x="-231.13498"
           y="46.291424"
           id="tspan1286-2"
           style="fill:none;stroke:#e6e6e6;stroke-width:0.5"><tspan
             dx="0"
             dy="0"
             style="font-style:normal;font-variant:normal;font-weight:400;font-size:3.9026px;font-family:Calibri;fill:none;stroke:#e6e6e6;stroke-width:0.5"
             id="tspan1284-5"> </tspan></tspan></text>
      <text
         xml:space="preserve"
         style="font-style:normal;font-variant:normal;font-weight:400;font-size:3.9026px;line-height:125%;font-family:Calibri;text-align:start;letter-spacing:0px;word-spacing:0px;text-anchor:start;fill:none;fill-opacity:1;stroke:#e6e6e6;stroke-width:0.5"
         x="-233.78081"
         y="48.937256"
         id="text1262-6"><tspan
           sodipodi:role="line"
           x="-233.78081"
           y="48.937256"
           id="tspan1260-3"
           style="fill:none;stroke:#e6e6e6;stroke-width:0.5"><tspan
             dx="0"
             dy="0"
             style="font-style:normal;font-variant:normal;font-weight:400;font-size:3.9026px;font-family:Calibri;fill:none;stroke:#e6e6e6;stroke-width:0.5"
             id="tspan1258-4"> </tspan></tspan></text>
      <path
         id="path244-6-9-5-3-8-80-2"
         style="fill:none;fill-rule:evenodd;stroke:#e6e6e6;stroke-width:0.5;stroke-opacity:1"
         d="m -259.49785,42.851647 a 42.333328,42.333328 0 0 0 -26.41234,9.260417 h 0.68368 c 0.10893,-0.246993 0.22874,-0.488302 0.36018,-0.722437 a 42.333328,42.333328 0 0 1 7.98866,-4.735628 c 0.0754,-0.0024 0.15074,-0.0056 0.22634,-0.0062 3.18704,-0.02586 6.52689,1.564953 8.82634,5.464266 h 34.76067 a 42.333328,42.333328 0 0 0 -26.43353,-9.260417 z" />
      <path
         id="path244-6-9-5-3-8-55-6"
         style="fill:none;fill-rule:evenodd;stroke:#e6e6e6;stroke-width:0.5;stroke-opacity:1"
         d="m -285.89727,52.112064 a 42.333328,42.333328 0 0 0 -8.74831,9.525 h 0.53847 a 42.333328,42.333328 0 0 1 5.56762,-6.65024 c 1.02505,0.215839 2.03157,0.632201 2.97398,1.278992 -0.11772,-1.50837 0.16919,-2.912662 0.75241,-4.153752 z m 18.29552,0 c 0.0599,0.09834 0.11975,0.197299 0.17828,0.29869 1.46245,2.533021 1.73275,5.817475 1.37253,9.22631 h 41.722 a 42.333328,42.333328 0 0 0 -8.74934,-9.525 z" />
      <path
         id="path244-6-9-5-3-8-8-7"
         style="fill:none;fill-rule:evenodd;stroke:#e6e6e6;stroke-width:0.5;stroke-opacity:1"
         d="m -294.64558,61.637064 a 42.333328,42.333328 0 0 0 -4.74958,9.525 h 1.93167 c -0.25846,-0.336801 -0.49466,-0.685837 -0.70435,-1.049032 -0.11803,-0.204429 -0.22665,-0.407802 -0.33125,-0.610815 a 42.333328,42.333328 0 0 1 4.2416,-7.865153 z m 28.40964,0 c -0.33491,3.237663 -1.24285,6.59064 -2.25361,9.525 h 48.91019 a 42.333328,42.333328 0 0 0 -4.74958,-9.525 z" />
      <path
         id="path244-6-9-5-3-8-5-1"
         style="fill:none;fill-rule:evenodd;stroke:#e6e6e6;stroke-width:0.5;stroke-opacity:1"
         d="m -299.40291,71.162064 a 42.333328,42.333328 0 0 0 -2.14974,9.525 h 84.1313 a 42.333328,42.333328 0 0 0 -2.14974,-9.525 h -48.61822 c -1.27833,3.773119 -2.74459,6.89685 -3.41685,8.25686 l 0.002,0.0031 a 1.2276665,1.2276665 0 0 1 -1.19166,0.68833 c -3.78043,-0.24713 -19.5348,-1.692296 -24.68945,-8.948291 z" />
      <g
         id="g2145"
         style="fill:none;stroke:#e6e6e6">
        <path
           id="path244-6-9-5-3-8-86-9"
           style="fill:none;fill-rule:evenodd;stroke:#e6e6e6;stroke-width:0.5;stroke-opacity:1"
           d="m -299.30232,99.47267 a 42.333328,42.333328 0 0 0 4.82348,9.525 h 69.98229 a 42.333328,42.333328 0 0 0 4.85138,-9.524996 z" />
        <path
           id="path244-6-9-5-3-8-1-8"
           style="fill:none;fill-rule:evenodd;stroke:#e6e6e6;stroke-width:0.5;stroke-opacity:1"
           d="m -294.47884,108.99767 a 42.333328,42.333328 0 0 0 8.93744,9.525 h 52.12601 a 42.333328,42.333328 0 0 0 8.91884,-9.525 z" />
        <path
           id="path244-6-9-5-3-8-0-5"
           style="fill:none;fill-rule:evenodd;stroke:#e6e6e6;stroke-width:0.5;stroke-opacity:1"
           d="m -301.52079,89.94767 a 42.333328,42.333328 0 0 0 2.21847,9.525 l 79.65715,-2e-6 a 42.333328,42.333328 0 0 0 2.21795,-9.525 z" />
        <path
           id="path244-6-9-5-9-8-0"
           style="fill:none;fill-rule:evenodd;stroke:#e6e6e6;stroke-width:0.5;stroke-opacity:1"
           d="m -301.55282,80.687254 a 42.333328,42.333328 0 0 0 -0.26769,4.497917 42.333328,42.333328 0 0 0 0.29972,4.762499 l 84.09357,10e-7 a 42.333328,42.333328 0 0 0 0.27338,-4.78472 42.333328,42.333328 0 0 0 -0.26769,-4.475697 z" />
        <path
           id="rect2315-8-0"
           style="fill:none;fill-rule:evenodd;stroke:#e6e6e6;stroke-width:0.5;stroke-opacity:1"
           d="m -285.5414,118.52267 a 42.333328,42.333328 0 0 0 26.06559,8.98447 42.333328,42.333328 0 0 0 26.06043,-8.98447 z" />
      </g>
    </g>
    <circle
       style="opacity:1;fill:#e6e6e6;fill-rule:evenodd;stroke:none;stroke-width:1;stroke-opacity:1"
       id="path2136"
       cx="17.197916"
       cy="66.145836"
       r="2.6458333" />
    <circle
       style="fill:#e6e6e6;fill-rule:evenodd;stroke:none;stroke-width:1;stroke-opacity:1"
       id="path2136-4"
       cx="115.09375"
       cy="66.145836"
       r="2.6458333" />
    <text
       xml:space="preserve"
       style="font-style:normal;font-variant:normal;font-weight:900;font-stretch:normal;font-size:31.75px;font-family:'Kanit Black';-inkscape-font-specification:'Kanit Black,  Heavy';text-orientation:upright;opacity:1;fill:#e6e6e6;fill-rule:evenodd;stroke:#e6e6e6;stroke-width:1;stroke-opacity:1"
       x="26.140833"
       y="77.12075"
       id="text3766"><tspan
         sodipodi:role="line"
         id="tspan3764"
         style="font-size:31.75px;fill:#e6e6e6;stroke:#e6e6e6;stroke-width:1"
         x="26.140833"
         y="77.12075">P<tspan
   style="fill:#e6e6e6;stroke:#e6e6e6"
   id="tspan4022">L</tspan><tspan
   style="fill:#e6e6e6;stroke:#e6e6e6"
   id="tspan4228">UG</tspan></tspan></text>
  </g>
</svg>
